<svg height="512" viewBox="0 0 128 128" width="512" xmlns="http://www.w3.org/2000/svg"><g><path d="m103.473 100.558a18.221 18.221 0 1 0 -2.073-36.316 13.674 13.674 0 0 0 -20.27-14.95 25.959 25.959 0 1 0 -51.12 9.033 21.191 21.191 0 1 0 -2.51 42.233z" fill="#beddfc"/><g fill="#090e3f"><path d="m82.08 98.808h-54.58a19.447 19.447 0 0 1 0-38.894 19.7 19.7 0 0 1 2.3.149h.093a19.556 19.556 0 0 1 15.948 12.808 1.75 1.75 0 1 0 3.3-1.168 23.093 23.093 0 0 0 -17.586-14.923 23.321 23.321 0 0 1 .593-9.8 1.75 1.75 0 0 0 -3.375-.926 27.725 27.725 0 0 0 -.818 10.363c-.152 0-.3 0-.452 0a22.947 22.947 0 0 0 0 45.894h54.577a1.75 1.75 0 0 0 0-3.5z"/><path d="m103.479 62.367c.038-.434.057-.866.057-1.292a15.425 15.425 0 0 0 -21.136-14.35 27.716 27.716 0 0 0 -50.424-7.971 1.75 1.75 0 1 0 2.969 1.853 24.2 24.2 0 0 1 44.232 7.863 15.572 15.572 0 0 0 -6.017 8.624 1.75 1.75 0 1 0 3.382.9 12.048 12.048 0 0 1 5.4-7.16c.026-.014.055-.021.081-.036a11.915 11.915 0 0 1 17.677 13.041 1.749 1.749 0 0 0 1.9 2.142 16.467 16.467 0 1 1 1.872 32.827 1.75 1.75 0 0 0 0 3.5 19.971 19.971 0 0 0 .006-39.941z"/><path d="m94.816 98.808h-4.5a1.75 1.75 0 0 0 0 3.5h4.5a1.75 1.75 0 0 0 0-3.5z"/><path d="m59.315 39.483a1.75 1.75 0 1 0 .924-3.376 18.038 18.038 0 0 0 -5.708-.608 1.75 1.75 0 0 0 .189 3.495 14.505 14.505 0 0 1 4.595.489z"/><path d="m41.069 53.4a14.491 14.491 0 0 1 7.189-12.484 1.75 1.75 0 0 0 -1.758-3.024 18 18 0 0 0 -8.931 15.508 1.75 1.75 0 0 0 3.5 0z"/><path d="m110.163 82.337a1.75 1.75 0 0 0 3.5 0 10.2 10.2 0 0 0 -10.19-10.189 10.1 10.1 0 0 0 -6.2 2.105 1.75 1.75 0 0 0 2.127 2.776 6.619 6.619 0 0 1 4.071-1.381 6.7 6.7 0 0 1 6.692 6.689z"/></g></g></svg>