<svg height="512" viewBox="0 0 128 128" width="512" xmlns="http://www.w3.org/2000/svg"><g><path d="m103.473 114.623a18.221 18.221 0 1 0 -2.073-36.316 13.674 13.674 0 0 0 -20.27-14.95 25.959 25.959 0 1 0 -51.119 9.033 21.191 21.191 0 1 0 -2.511 42.233z" fill="#beddfc"/><path d="m100.36 48.04a20.329 20.329 0 0 1 -6.31 14.76l-.01.01a13.589 13.589 0 0 0 -12.91.55 25.947 25.947 0 0 0 -20.67-21.37v-.01a20.41 20.41 0 0 1 39.9 6.06z" fill="#f7b634"/><g fill="#090e3f"><path d="m103.479 76.432c.038-.434.057-.866.057-1.292a15.437 15.437 0 0 0 -6.711-12.727 21.878 21.878 0 0 0 5.213-12.62h12.582a1.75 1.75 0 0 0 0-3.5h-12.583a22.187 22.187 0 0 0 -20.337-20.333v-12.583a1.75 1.75 0 1 0 -3.5 0v12.577a22.023 22.023 0 0 0 -18.9 14.082 28.163 28.163 0 0 0 -3.8-.279 27.572 27.572 0 0 0 -23.528 13.062 1.75 1.75 0 0 0 2.969 1.853 24.2 24.2 0 0 1 44.235 7.863 15.586 15.586 0 0 0 -6.017 8.624 1.75 1.75 0 0 0 3.383.9 12.05 12.05 0 0 1 5.4-7.16c.027-.014.056-.021.082-.036a11.913 11.913 0 0 1 17.676 13.037 1.75 1.75 0 0 0 1.9 2.142 16.467 16.467 0 1 1 1.872 32.827 1.75 1.75 0 0 0 0 3.5 19.971 19.971 0 0 0 .006-39.941zm-21.079-15.642a27.509 27.509 0 0 0 -19.6-20.064 18.651 18.651 0 1 1 30.813 20 15.252 15.252 0 0 0 -11.21.061z"/><path d="m94.816 112.873h-4.5a1.75 1.75 0 0 0 0 3.5h4.5a1.75 1.75 0 0 0 0-3.5z"/><path d="m82.08 112.873h-54.58a19.447 19.447 0 0 1 0-38.894 19.7 19.7 0 0 1 2.3.149h.093a19.556 19.556 0 0 1 15.948 12.808 1.75 1.75 0 1 0 3.3-1.168 23.093 23.093 0 0 0 -17.586-14.923 23.321 23.321 0 0 1 .593-9.8 1.75 1.75 0 1 0 -3.375-.926 27.725 27.725 0 0 0 -.818 10.363c-.152 0-.3 0-.452 0a22.947 22.947 0 0 0 0 45.894h54.577a1.75 1.75 0 0 0 0-3.5z"/><path d="m59.315 53.548a1.75 1.75 0 0 0 .924-3.376 18.1 18.1 0 0 0 -5.708-.609 1.751 1.751 0 0 0 .189 3.5 14.425 14.425 0 0 1 4.595.485z"/><path d="m41.069 67.466a14.491 14.491 0 0 1 7.189-12.484 1.75 1.75 0 1 0 -1.758-3.025 18 18 0 0 0 -8.93 15.509 1.75 1.75 0 0 0 3.5 0z"/><path d="m110.163 96.4a1.75 1.75 0 0 0 3.5 0 10.2 10.2 0 0 0 -10.19-10.189 10.094 10.094 0 0 0 -6.2 2.105 1.75 1.75 0 1 0 2.127 2.778 6.621 6.621 0 0 1 4.071-1.381 6.7 6.7 0 0 1 6.692 6.687z"/><path d="m94.56 48.043a14.621 14.621 0 0 0 -14.606-14.6 1.75 1.75 0 0 0 0 3.5 11.118 11.118 0 0 1 11.106 11.1 1.75 1.75 0 1 0 3.5 0z"/><path d="m93.044 25.554a1.748 1.748 0 0 0 2.393-.633l3.463-5.959a1.75 1.75 0 1 0 -3.025-1.76l-3.468 5.959a1.75 1.75 0 0 0 .637 2.393z"/><path d="m49.113 32.117 5.959 3.468a1.75 1.75 0 0 0 1.761-3.024l-5.959-3.468a1.75 1.75 0 1 0 -1.761 3.024z"/><path d="m104.836 60.5a1.75 1.75 0 1 0 -1.76 3.025l5.959 3.468a1.75 1.75 0 1 0 1.76-3.025z"/><path d="m64.472 24.921a1.75 1.75 0 1 0 3.025-1.76l-3.468-5.961a1.75 1.75 0 1 0 -3.029 1.762z"/><path d="m103.958 35.824a1.739 1.739 0 0 0 .878-.238l5.959-3.468a1.75 1.75 0 1 0 -1.76-3.026l-5.959 3.469a1.75 1.75 0 0 0 .882 3.263z"/></g></g></svg>
