<svg height="512" viewBox="0 0 128 128" width="512" xmlns="http://www.w3.org/2000/svg"><g><circle cx="64" cy="64" fill="#f7b634" r="37.906"/><g fill="#090e3f"><path d="m121.693 62.25h-18.082a39.7 39.7 0 0 0 -37.861-37.861v-18.082a1.75 1.75 0 0 0 -3.5 0v18.093a39.46 39.46 0 0 0 -31.815 18.473 1.75 1.75 0 0 0 2.965 1.867 36.16 36.16 0 1 1 59.907 40.439 1.75 1.75 0 1 0 2.835 2.052 39.322 39.322 0 0 0 7.473-21.481h18.078a1.75 1.75 0 0 0 0-3.5z"/><path d="m41.631 102.433a1.752 1.752 0 0 0 -2.393.632l-5.772 9.917a1.75 1.75 0 1 0 3.025 1.761l5.772-9.917a1.751 1.751 0 0 0 -.632-2.393z"/><path d="m86.369 25.567a1.749 1.749 0 0 0 2.393-.632l5.772-9.917a1.75 1.75 0 1 0 -3.025-1.761l-5.772 9.917a1.751 1.751 0 0 0 .632 2.393z"/><path d="m13.257 36.491 9.917 5.772a1.75 1.75 0 1 0 1.761-3.025l-9.917-5.772a1.75 1.75 0 1 0 -1.761 3.025z"/><path d="m114.743 91.509-9.917-5.772a1.75 1.75 0 1 0 -1.761 3.025l9.917 5.772a1.75 1.75 0 0 0 1.761-3.025z"/><path d="m88.762 103.065a1.75 1.75 0 0 0 -3.025 1.761l5.772 9.917a1.75 1.75 0 0 0 3.025-1.761z"/><path d="m39.238 24.935a1.75 1.75 0 1 0 3.025-1.761l-5.772-9.917a1.75 1.75 0 0 0 -3.025 1.761z"/><path d="m103.947 42.5a1.745 1.745 0 0 0 .879-.238l9.917-5.772a1.75 1.75 0 1 0 -1.761-3.025l-9.917 5.772a1.75 1.75 0 0 0 .882 3.263z"/><path d="m23.174 85.737-9.917 5.772a1.75 1.75 0 1 0 1.761 3.025l9.917-5.772a1.75 1.75 0 1 0 -1.761-3.025z"/><path d="m91.185 92.872a1.75 1.75 0 1 0 -2.4-2.548 36.156 36.156 0 0 1 -60.941-26.324c0-.861.031-1.728.091-2.576a1.75 1.75 0 0 0 -3.492-.247c-.025.354-.022.715-.037 1.073h-18.099a1.75 1.75 0 0 0 0 3.5h18.082a39.7 39.7 0 0 0 37.861 37.861v18.082a1.75 1.75 0 0 0 3.5 0v-18.078a39.488 39.488 0 0 0 25.435-10.743z"/><path d="m26.934 55.838a1.748 1.748 0 0 0 2.143-1.238 36.2 36.2 0 0 1 1.123-3.456 1.75 1.75 0 1 0 -3.275-1.244 39.491 39.491 0 0 0 -1.228 3.8 1.75 1.75 0 0 0 1.237 2.138z"/><path d="m89.553 57.423a1.752 1.752 0 0 0 1.694 1.316 1.772 1.772 0 0 0 .436-.055 1.751 1.751 0 0 0 1.26-2.131 29.718 29.718 0 0 0 -9.7-15.408 1.75 1.75 0 0 0 -2.256 2.676 26.237 26.237 0 0 1 8.566 13.602z"/><path d="m75.288 40.151a1.75 1.75 0 0 0 1.5-3.162 29.734 29.734 0 0 0 -5.017-1.847 1.75 1.75 0 1 0 -.909 3.38 26.327 26.327 0 0 1 4.426 1.629z"/></g></g></svg>
