<svg height="512" viewBox="0 0 128 128" width="512" xmlns="http://www.w3.org/2000/svg"><g><path d="m40.99 101.604 3.527 3.527-3.527 3.527h67.41v-7.054z" fill="#5893d4"/><path d="m68.231 92.208c-1.19 0-2.364-.062-3.527-.162v29.648h7.053v-29.648c-1.163.1-2.337.162-3.526.162z" fill="#5893d4"/><path d="m113.778 10.783-.2-.249a3.584 3.584 0 0 0 -4.781-.721l-1.5 1.008a3.584 3.584 0 0 1 -5.408-1.882l-.047-.144a3.584 3.584 0 0 0 -6.825 0l-.047.144a3.584 3.584 0 0 1 -5.408 1.882l-1.5-1.008a3.584 3.584 0 0 0 -4.781.721l-.2.25a3.583 3.583 0 0 0 .028 4.545l5.977 7.2a10.572 10.572 0 0 1 18.689 0l5.978-7.2a3.585 3.585 0 0 0 .025-4.546z" fill="#cc3636"/><circle cx="68.231" cy="105.131" fill="#cc3636" r="7.52"/><path d="m108.4 93.54 11.591 11.591-11.591 11.592z" fill="#f7b634"/><path d="m36.121 113.528 8.396-8.397-8.396-8.396h-19.651l8.397 8.396-8.397 8.397z" fill="#f7b634"/><path d="m109 31.98v-4.51a10.662 10.662 0 0 0 -.32-2.61l13.01 7.12z" fill="#cc3636"/><path d="m109 27.475a10.575 10.575 0 0 0 -10.576-10.575 10.575 10.575 0 0 0 -10.576 10.575v23.965h-39.235v-4.489a20 20 0 0 0 -20-20h-18.225a4.082 4.082 0 0 0 -4.082 4.082 4.082 4.082 0 0 0 4.082 4.081h3a4.082 4.082 0 0 0 -4.082 4.086 4.082 4.082 0 0 0 4.082 4.081h3a4.082 4.082 0 0 0 -4.082 4.082 4.082 4.082 0 0 0 4.082 4.081h11.075a40.767 40.767 0 0 0 40.768 40.764 40.768 40.768 0 0 0 40.769-40.768z" fill="#f7b634"/><path d="m87.848 51.44a19.617 19.617 0 0 1 -19.617 19.618 19.618 19.618 0 0 1 -19.618-19.618z" fill="#cc3636"/><g fill="#090e3f"><path d="m28.613 28.7a18.415 18.415 0 0 1 3.833.4 1.775 1.775 0 0 0 .367.039 1.75 1.75 0 0 0 .364-3.462 21.872 21.872 0 0 0 -4.564-.48 1.75 1.75 0 0 0 0 3.5z"/><path d="m98.423 23.106a4.851 4.851 0 0 0 -4.845 4.847 1.75 1.75 0 1 0 3.5 0 1.346 1.346 0 1 1 2.692 0 1.75 1.75 0 0 0 3.5 0 4.852 4.852 0 0 0 -4.847-4.847z"/><path d="m122.533 30.441-12.393-6.772c-.1-.3-.2-.585-.318-.87l5.274-6.352a5.348 5.348 0 0 0 .041-6.766l-.2-.248a5.309 5.309 0 0 0 -7.116-1.074l-1.5 1.008a1.834 1.834 0 0 1 -2.768-.963l-.053-.144a5.335 5.335 0 0 0 -10.158 0l-.042.14a1.835 1.835 0 0 1 -2.767.964l-1.505-1.01a5.306 5.306 0 0 0 -7.113 1.074l-.2.25a5.349 5.349 0 0 0 .041 6.765l5.269 6.357a12.25 12.25 0 0 0 -.926 4.675v22.215h-35.736v-2.739a21.811 21.811 0 0 0 -9.136-17.721 1.75 1.75 0 0 0 -2.033 2.85 18.3 18.3 0 0 1 7.669 14.871v4.489a21.368 21.368 0 1 0 42.736 0v-23.965a8.825 8.825 0 1 1 17.65 0v23.965a39.016 39.016 0 0 1 -77.992 1.75h6.561a1.75 1.75 0 0 0 0-3.5h-19.43a2.332 2.332 0 0 1 0-4.663h12.4a1.75 1.75 0 0 0 0-3.5h-15.4a2.332 2.332 0 0 1 0-4.663h8.355a1.75 1.75 0 1 0 0-3.5h-11.355a2.332 2.332 0 0 1 0-4.663h9.981a1.75 1.75 0 0 0 0-3.5h-9.981a5.832 5.832 0 0 0 -2.146 11.254 5.83 5.83 0 0 0 3 8.163 5.83 5.83 0 0 0 5.146 8.572h9.36a42.58 42.58 0 0 0 37.206 40.429v3.9a9.352 9.352 0 0 0 -2.335 2.335h-18.9l-4.361-4.354a1.75 1.75 0 0 0 -1.237-.513h-19.651a1.75 1.75 0 0 0 -1.237 2.988l7.159 7.159-7.159 7.159a1.75 1.75 0 0 0 1.237 2.987h19.651a1.749 1.749 0 0 0 1.237-.512l4.356-4.357h18.905a9.352 9.352 0 0 0 2.335 2.335v8.95a1.75 1.75 0 0 0 1.75 1.75h7.053a1.749 1.749 0 0 0 1.75-1.75v-8.95a9.319 9.319 0 0 0 2.335-2.335h14.263a1.75 1.75 0 0 0 0-3.5h-12.78a9.135 9.135 0 0 0 0-3.554h29.323v3.554h-8.865a1.75 1.75 0 0 0 0 3.5h8.866v6.315a1.75 1.75 0 0 0 2.988 1.237l11.592-11.592a1.75 1.75 0 0 0 0-2.474l-11.592-11.597a1.75 1.75 0 0 0 -2.988 1.237v6.314h-30.807a9.332 9.332 0 0 0 -2.335-2.334v-3.9a42.573 42.573 0 0 0 37.242-42.177v-17.713h10.944a1.75 1.75 0 0 0 .84-3.286zm-12.384 67.324 7.367 7.366-7.367 7.367zm-36.149 7.366a5.77 5.77 0 1 1 -5.77-5.77 5.776 5.776 0 0 1 5.77 5.77zm-47.9 1.237a1.748 1.748 0 0 0 0-2.474l-5.4-5.41h4.876l6.646 6.647-6.646 6.646h-4.876zm9.292 5.409h-4.872l5.409-5.409a1.748 1.748 0 0 0 0-2.474l-5.409-5.41h4.88l4.355 4.356 2.287 2.287zm9.818-4.869.54-.54a1.748 1.748 0 0 0 0-2.474l-.539-.54h13.925a9.11 9.11 0 0 0 0 3.554zm24.793 13.035h-3.549v-5.717a9.1 9.1 0 0 0 3.553 0zm0-23.907a9.1 9.1 0 0 0 -3.553 0v-2.122c.59.024 1.181.044 1.776.044s1.187-.021 1.777-.045zm-1.773-26.728a17.892 17.892 0 0 1 -17.779-16.118h35.559a17.892 17.892 0 0 1 -17.78 16.118zm30.193-54.159a12.3 12.3 0 0 0 -9.489 4.471l-4.491-5.409a1.838 1.838 0 0 1 -.015-2.325l.2-.25a1.824 1.824 0 0 1 2.445-.37l1.5 1.009a5.335 5.335 0 0 0 8.049-2.8l.046-.145a1.835 1.835 0 0 1 3.493 0l.047.145a5.333 5.333 0 0 0 8.049 2.8l1.5-1.007a1.823 1.823 0 0 1 2.448.37l.2.248a1.838 1.838 0 0 1 -.014 2.326l-4.491 5.409a12.3 12.3 0 0 0 -9.477-4.472zm12.326 15.078v-2.238l4.093 2.238z"/><path d="m87.14 76.528a1.75 1.75 0 1 0 2.109 2.793 35.188 35.188 0 0 0 10.268-12.367 1.75 1.75 0 1 0 -3.135-1.554 31.67 31.67 0 0 1 -9.242 11.128z"/><path d="m101.348 53.948a1.765 1.765 0 0 0 -1.958 1.515 31.249 31.249 0 0 1 -.724 3.791 1.75 1.75 0 0 0 1.261 2.129 1.772 1.772 0 0 0 .436.055 1.752 1.752 0 0 0 1.694-1.317 35.005 35.005 0 0 0 .8-4.215 1.751 1.751 0 0 0 -1.509-1.958z"/></g></g></svg>